<svg width="100" height="59" viewBox="0 0 100 59" fill="none" xmlns="http://www.w3.org/2000/svg">
<path fill-rule="evenodd" clip-rule="evenodd" d="M7.92588 1.18788C4.36988 2.48689 3.89688 6.64588 7.42588 5.57888C12.4409 4.06188 17.7089 3.89489 19.4129 5.19789C20.3679 5.92789 21.4359 7.98788 21.7879 9.77588L22.4259 13.0259H15.8569C10.3689 13.0259 8.82888 13.4199 6.50388 15.4199C2.88888 18.5299 2.58488 24.8789 5.89288 28.1879C8.65488 30.9489 15.5549 31.1339 19.4939 28.5529C22.1269 26.8279 22.3099 26.8259 23.5429 28.5129C24.6009 29.9599 25.2209 30.0729 26.9729 29.1339C28.7679 28.1739 28.9569 27.5789 28.1439 25.4429C27.6119 24.0419 27.1759 19.0649 27.1759 14.3839C27.1759 6.30989 27.0259 5.72188 24.2529 2.94888C21.7239 0.419884 20.6119 0.0368847 16.0029 0.104885C13.0729 0.147885 9.43788 0.635885 7.92588 1.18788ZM30.9239 0.610883C30.6029 0.932883 30.7289 2.39488 31.2059 3.86088C31.6829 5.32688 33.6959 11.8129 35.6799 18.2759C38.9799 29.0269 39.4919 30.0259 41.6959 30.0259C44.7029 30.0259 45.4809 28.5249 47.6549 18.5259C50.1559 7.01888 50.6719 6.66488 52.5609 15.1539C55.7619 29.5429 55.9729 30.0259 59.0549 30.0259C61.7549 30.0259 61.9699 29.6129 66.0079 16.7119C70.7629 1.52289 70.9599 0.0258842 68.2109 0.0258842C65.6679 0.0258842 64.9209 1.61189 62.2009 12.7879C60.9609 17.8819 59.6529 22.2309 59.2939 22.4529C58.9359 22.6749 57.5649 18.1639 56.2489 12.4299C53.7529 1.56188 52.5449 -0.543115 49.3779 0.461885C47.9049 0.928885 46.9769 3.33689 45.2039 11.2949C43.9499 16.9219 42.6199 21.8649 42.2479 22.2789C41.8749 22.6919 40.5239 18.6419 39.2449 13.2789C37.9649 7.91488 36.5099 2.73788 36.0119 1.77588C35.1389 0.0898843 32.1329 -0.598117 30.9239 0.610883ZM76.9229 2.00988C73.6009 4.62288 72.7519 8.30588 74.6339 11.9439C75.7569 14.1159 77.5659 15.3229 81.8339 16.7449C88.2219 18.8749 90.2889 21.0319 88.5689 23.7759C87.2479 25.8839 80.3279 26.6229 76.0089 25.1179C73.2679 24.1619 73.0679 24.2519 73.3599 26.3049C73.7689 29.1809 80.6739 31.5299 85.8589 30.5579C90.3869 29.7079 95.1759 25.0819 95.1759 21.5569C95.1759 18.3799 91.3829 14.3559 87.5119 13.4259C80.2569 11.6839 77.3069 8.29488 80.3759 5.22588C81.8249 3.77689 87.0869 3.66188 90.6109 5.00088C92.8179 5.83988 93.1759 5.70588 93.1759 4.03588C93.1759 1.37188 90.2239 0.0258842 84.3769 0.0258842C80.9729 0.0258842 78.6639 0.640883 76.9229 2.00988ZM19.0509 16.6509C22.7739 17.3959 23.1119 19.5659 20.1029 23.3909C17.7519 26.3809 12.2639 27.0419 10.2219 24.5809C8.39587 22.3819 9.37988 18.7249 12.1759 17.3159C15.1099 15.8369 15.0219 15.8449 19.0509 16.6509ZM83.6759 38.9709L79.6759 40.8639L86.9259 40.9449L94.1759 41.0259V44.0579C94.1759 45.7259 93.4949 48.7199 92.6629 50.7119C89.6639 57.8889 93.3229 56.0549 96.7689 48.6529C99.5419 42.6979 99.8559 38.5009 97.5939 37.6329C94.4989 36.4449 87.6149 37.1069 83.6759 38.9709ZM2.93288 42.8389C8.87388 48.3809 21.3809 54.6259 31.2999 57.0039C41.2329 59.3849 54.6999 59.6219 64.3139 57.5839C71.7099 56.0169 84.3949 50.9759 88.0699 48.1449C91.6569 45.3809 89.9299 43.6839 85.4399 45.5599C74.7639 50.0209 66.0269 51.4529 49.6759 51.4219C31.6699 51.3879 24.5269 49.9639 9.76788 43.4629C-1.64912 38.4339 -1.80512 38.4199 2.93288 42.8389Z" fill="black"/>
</svg>
