<svg width="79" height="97" viewBox="0 0 79 97" fill="none" xmlns="http://www.w3.org/2000/svg">
<path fill-rule="evenodd" clip-rule="evenodd" d="M12.0938 0.990035C11.2508 3.27203 -0.295217 58.275 0.00578278 58.576C0.435783 59.007 23.5858 18.414 23.5858 17.228C23.5858 15.381 15.1198 0.473035 13.8368 0.059035C13.1488 -0.161965 12.3648 0.257035 12.0938 0.990035ZM36.2258 13.573L33.8368 17.323L36.7258 23.073C38.3148 26.236 39.9238 28.823 40.3028 28.823C40.6808 28.823 42.4418 27.416 44.2168 25.696L47.4418 22.57L44.2998 16.196C42.5708 12.691 40.5848 9.82304 39.8858 9.82304C39.1868 9.82304 37.5398 11.511 36.2258 13.573ZM34.9388 45.993C17.4198 62.586 2.98978 76.423 2.87178 76.743C2.64378 77.359 35.0598 96.093 37.3238 96.653C39.2468 97.129 77.4968 74.678 78.1228 72.706C78.6688 70.985 70.2188 18.656 69.1038 16.852C68.7538 16.286 68.0908 15.823 67.6298 15.823C67.1698 15.823 52.4588 29.399 34.9388 45.993ZM27.3178 28.941C26.4998 30.251 22.6058 36.897 18.6638 43.71L11.4988 56.097L17.2918 51.039C20.4788 48.257 25.4888 43.528 28.4268 40.529C33.7388 35.106 33.7598 35.06 32.2138 32.199C29.1268 26.488 28.9308 26.357 27.3178 28.941Z" fill="black"/>
</svg>
