<svg width="84" height="84" viewBox="0 0 84 84" fill="none" xmlns="http://www.w3.org/2000/svg">
<path fill-rule="evenodd" clip-rule="evenodd" d="M1.655 1.829C0.175 3.464 0 7.737 0 42.174C0 78.218 0.117 80.796 1.829 82.345C3.464 83.825 7.737 84 42.174 84C78.218 84 80.796 83.883 82.345 82.171C83.825 80.536 84 76.263 84 41.826C84 5.782 83.883 3.204 82.171 1.655C80.536 0.175 76.263 0 41.826 0C5.782 0 3.204 0.117 1.655 1.829ZM45.819 54.084L45.5 70.169L42.234 73.084C39.915 75.155 37.93 76 35.385 76C30.843 76 25.573 73.524 23.553 70.441C22.072 68.181 22.124 67.965 24.53 66.388C26.918 64.823 27.28 64.836 30.551 66.597C33.218 68.034 34.435 68.216 35.765 67.378C37.255 66.44 37.539 64.289 37.777 52.143L38.055 38H42.096H46.138L45.819 54.084ZM69.75 39.989C73.691 42.392 73.86 44.207 70.356 46.503C67.935 48.089 67.635 48.099 66.806 46.618C64.926 43.259 58.167 45.667 59.527 49.211C59.836 50.016 62.778 51.96 66.065 53.531C73.418 57.046 75.023 58.753 75.697 63.778C76.337 68.552 74.913 71.473 70.686 74.05C64.841 77.614 55.053 75.782 51.573 70.471C50.11 68.238 50.178 68.01 52.872 66.091L55.714 64.067L58.032 66.534C60.63 69.3 65.086 69.806 66.96 67.548C69.064 65.013 67.157 62.443 60.981 59.491C57.683 57.915 54.313 55.6 53.492 54.348C51.773 51.724 51.528 45.75 53.025 42.953C55.608 38.128 64.2 36.605 69.75 39.989Z" fill="black"/>
</svg>
