<svg width="93" height="92" viewBox="0 0 93 92" fill="none" xmlns="http://www.w3.org/2000/svg">
<path fill-rule="evenodd" clip-rule="evenodd" d="M35.0671 1.16219C32.5761 1.96319 29.2081 4.00519 27.5841 5.70019C24.9571 8.44319 24.5911 9.60219 24.2561 16.2342L23.8791 23.6862H33.9891C51.4921 23.6862 45.1611 25.5382 26.5191 25.8722L8.94012 26.1862L5.59212 29.8422C-1.86487 37.9842 -1.86388 53.3922 5.59412 61.5302C8.88112 65.1172 9.10513 65.1932 17.5211 65.5392L26.0981 65.8912V58.2432C26.0981 51.4562 26.3741 50.3192 28.5531 48.1412C30.9341 45.7592 31.4431 45.6862 45.5531 45.6862C65.0321 45.6862 64.0981 46.6602 64.0981 26.3342C64.0981 12.0622 63.9391 10.7462 61.8451 7.63819C60.6051 5.79919 58.0941 3.42019 56.2641 2.35119C51.9031 -0.195814 41.1641 -0.798814 35.0671 1.16219ZM39.0581 11.1382C40.6131 13.0112 40.0701 15.6752 37.8481 17.0742C34.3831 19.2562 30.4811 14.3392 33.1381 11.1382C34.6821 9.27719 37.5141 9.27719 39.0581 11.1382ZM66.0981 34.1292C66.0981 41.9772 65.8711 43.0042 63.6431 45.2312C61.2621 47.6132 60.7531 47.6862 46.6431 47.6862C27.2711 47.6862 28.0981 46.8672 28.0981 66.0382C28.0981 79.2722 28.2741 80.6512 30.3511 83.7342C34.1231 89.3312 38.4161 91.1862 47.5981 91.1862C61.7461 91.1862 68.0981 85.8732 68.0981 74.0382V67.6862H58.0981C52.5571 67.6862 48.0981 67.2692 48.0981 66.7502C48.0981 66.2172 55.6561 65.6802 65.6771 65.5002L83.2561 65.1862L86.6041 61.5302C94.0611 53.3882 94.0601 37.9802 86.6021 29.8422C83.3151 26.2552 83.0911 26.1792 74.6751 25.8332L66.0981 25.4812V34.1292ZM59.0581 75.1382C61.7151 78.3392 57.8131 83.2562 54.3481 81.0742C50.8861 78.8932 52.1191 73.6862 56.0981 73.6862C57.0631 73.6862 58.3951 74.3392 59.0581 75.1382Z" fill="black"/>
</svg>
